<svg width="120" height="27" viewBox="0 0 120 27" fill="none" xmlns="http://www.w3.org/2000/svg">
<rect width="120" height="27" rx="2" fill="white"/>
<path d="M28.8672 17.1172C28.3984 17.1172 27.9688 17.0391 27.5781 16.8828C27.1914 16.7266 26.8594 16.5098 26.582 16.2324C26.3047 15.959 26.0898 15.6367 25.9375 15.2656C25.7891 14.8906 25.7148 14.4863 25.7148 14.0527V13.8125C25.7148 13.3164 25.793 12.8672 25.9492 12.4648C26.1055 12.0625 26.3203 11.7188 26.5938 11.4336C26.8672 11.1484 27.1836 10.9297 27.543 10.7773C27.9062 10.6211 28.293 10.543 28.7031 10.543C29.1602 10.543 29.5645 10.6211 29.916 10.7773C30.2676 10.9297 30.5625 11.1426 30.8008 11.416C31.0391 11.6934 31.2188 12.0234 31.3398 12.4062C31.4609 12.7891 31.5215 13.207 31.5215 13.6602V14.2637H27.127V14.293C27.1699 14.5703 27.2363 14.8027 27.3262 14.9902C27.416 15.1777 27.5391 15.3457 27.6953 15.4941C27.8516 15.6504 28.0352 15.7715 28.2461 15.8574C28.4609 15.9434 28.6953 15.9863 28.9492 15.9863C29.2969 15.9863 29.6211 15.9199 29.9219 15.7871C30.2227 15.6504 30.4707 15.457 30.666 15.207L31.416 15.9336C31.2051 16.2383 30.8809 16.5117 30.4434 16.7539C30.0098 16.9961 29.4844 17.1172 28.8672 17.1172ZM28.6973 11.6797C28.498 11.6797 28.3125 11.7168 28.1406 11.791C27.9727 11.8613 27.8223 11.9629 27.6895 12.0957C27.5566 12.2324 27.4453 12.3965 27.3555 12.5879C27.2656 12.7793 27.1992 12.9961 27.1562 13.2383H30.1387V13.1445C30.1387 12.9609 30.1055 12.7793 30.0391 12.5996C29.9727 12.416 29.8789 12.2559 29.7578 12.1191C29.6406 11.9863 29.4922 11.8809 29.3125 11.8027C29.1367 11.7207 28.9316 11.6797 28.6973 11.6797ZM35.8984 12.793L37.416 10.6602H38.9688L36.7422 13.7832L39.0391 17H37.4922L35.9102 14.7852L34.334 17H32.7812L35.0781 13.7832L32.8574 10.6602H34.3984L35.8984 12.793ZM43.2812 17.1172C42.8125 17.1172 42.3828 17.0391 41.9922 16.8828C41.6055 16.7266 41.2734 16.5098 40.9961 16.2324C40.7188 15.959 40.5039 15.6367 40.3516 15.2656C40.2031 14.8906 40.1289 14.4863 40.1289 14.0527V13.8125C40.1289 13.3164 40.207 12.8672 40.3633 12.4648C40.5195 12.0625 40.7344 11.7188 41.0078 11.4336C41.2812 11.1484 41.5977 10.9297 41.957 10.7773C42.3203 10.6211 42.707 10.543 43.1172 10.543C43.5742 10.543 43.9785 10.6211 44.3301 10.7773C44.6816 10.9297 44.9766 11.1426 45.2148 11.416C45.4531 11.6934 45.6328 12.0234 45.7539 12.4062C45.875 12.7891 45.9355 13.207 45.9355 13.6602V14.2637H41.541V14.293C41.584 14.5703 41.6504 14.8027 41.7402 14.9902C41.8301 15.1777 41.9531 15.3457 42.1094 15.4941C42.2656 15.6504 42.4492 15.7715 42.6602 15.8574C42.875 15.9434 43.1094 15.9863 43.3633 15.9863C43.7109 15.9863 44.0352 15.9199 44.3359 15.7871C44.6367 15.6504 44.8848 15.457 45.0801 15.207L45.8301 15.9336C45.6191 16.2383 45.2949 16.5117 44.8574 16.7539C44.4238 16.9961 43.8984 17.1172 43.2812 17.1172ZM43.1113 11.6797C42.9121 11.6797 42.7266 11.7168 42.5547 11.791C42.3867 11.8613 42.2363 11.9629 42.1035 12.0957C41.9707 12.2324 41.8594 12.3965 41.7695 12.5879C41.6797 12.7793 41.6133 12.9961 41.5703 13.2383H44.5527V13.1445C44.5527 12.9609 44.5195 12.7793 44.4531 12.5996C44.3867 12.416 44.293 12.2559 44.1719 12.1191C44.0547 11.9863 43.9062 11.8809 43.7266 11.8027C43.5508 11.7207 43.3457 11.6797 43.1113 11.6797ZM52.832 13.8184H48.1152V12.6816H52.832V13.8184ZM58.8789 15.2832C58.8789 15.1738 58.8535 15.0762 58.8027 14.9902C58.7559 14.9043 58.6758 14.8223 58.5625 14.7441C58.4414 14.6738 58.2832 14.6074 58.0879 14.5449C57.8926 14.4824 57.6484 14.4238 57.3555 14.3691C56.9883 14.2949 56.6523 14.2031 56.3477 14.0938C56.0469 13.9844 55.7871 13.8516 55.5684 13.6953C55.3535 13.5469 55.1855 13.3711 55.0645 13.168C54.9434 12.9648 54.8828 12.7285 54.8828 12.459C54.8828 12.2012 54.9434 11.957 55.0645 11.7266C55.1895 11.4922 55.3672 11.2871 55.5977 11.1113C55.8242 10.9355 56.0977 10.7969 56.418 10.6953C56.7422 10.5938 57.1016 10.543 57.4961 10.543C57.918 10.543 58.2969 10.5957 58.6328 10.7012C58.9688 10.8027 59.2539 10.9434 59.4883 11.123C59.7188 11.3027 59.8965 11.5156 60.0215 11.7617C60.1465 12.0078 60.209 12.2734 60.209 12.5586H58.8086C58.8086 12.4414 58.7832 12.3301 58.7324 12.2246C58.6855 12.1152 58.6152 12.0176 58.5215 11.9316C58.4121 11.8301 58.2715 11.75 58.0996 11.6914C57.9277 11.6289 57.7266 11.5977 57.4961 11.5977C57.2852 11.5977 57.0996 11.6211 56.9395 11.668C56.7832 11.7109 56.6543 11.7715 56.5527 11.8496C56.4512 11.9199 56.375 12.0039 56.3242 12.1016C56.2734 12.1953 56.248 12.2949 56.248 12.4004C56.248 12.5098 56.2695 12.6094 56.3125 12.6992C56.3555 12.7852 56.4316 12.8613 56.541 12.9277C56.6426 12.998 56.7832 13.0625 56.9629 13.1211C57.1465 13.1797 57.377 13.2324 57.6543 13.2793C58.041 13.3496 58.3945 13.4355 58.7148 13.5371C59.0352 13.6387 59.3086 13.7637 59.5352 13.9121C59.7617 14.0684 59.9375 14.252 60.0625 14.4629C60.1875 14.6738 60.25 14.9238 60.25 15.2129C60.25 15.4941 60.1836 15.752 60.0508 15.9863C59.9219 16.2207 59.7383 16.4219 59.5 16.5898C59.2578 16.7578 58.9688 16.8887 58.6328 16.9824C58.2969 17.0762 57.9238 17.123 57.5137 17.123C57.0566 17.123 56.6504 17.0625 56.2949 16.9414C55.9434 16.8203 55.6484 16.6602 55.4102 16.4609C55.168 16.2656 54.9844 16.041 54.8594 15.7871C54.7344 15.5332 54.6719 15.2754 54.6719 15.0137H56.0312C56.043 15.209 56.0938 15.375 56.1836 15.5117C56.2773 15.6445 56.3945 15.752 56.5352 15.834C56.6719 15.9199 56.8281 15.9824 57.0039 16.0215C57.1797 16.0566 57.3574 16.0742 57.5371 16.0742C57.7793 16.0742 57.9902 16.0488 58.1699 15.998C58.3535 15.9473 58.5 15.8789 58.6094 15.793C58.6992 15.7227 58.7656 15.6465 58.8086 15.5645C58.8555 15.4785 58.8789 15.3848 58.8789 15.2832ZM63.3438 11.5625C63.4258 11.4375 63.5176 11.3223 63.6191 11.2168C63.7207 11.1113 63.8281 11.0195 63.9414 10.9414C64.1172 10.8125 64.3105 10.7148 64.5215 10.6484C64.7363 10.5781 64.9629 10.543 65.2012 10.543C65.5332 10.543 65.8359 10.5918 66.1094 10.6895C66.3867 10.7871 66.623 10.9395 66.8184 11.1465C67.0137 11.3535 67.1641 11.6191 67.2695 11.9434C67.3789 12.2637 67.4336 12.6484 67.4336 13.0977V17H66.0332V13.0859C66.0332 12.8516 66.0039 12.6465 65.9453 12.4707C65.8906 12.2949 65.8086 12.1523 65.6992 12.043C65.5859 11.9258 65.4473 11.8398 65.2832 11.7852C65.123 11.7266 64.9375 11.6973 64.7266 11.6973C64.5625 11.6973 64.4062 11.7168 64.2578 11.7559C64.1133 11.7949 63.9805 11.8516 63.8594 11.9258C63.7578 11.9844 63.6621 12.0547 63.5723 12.1367C63.4863 12.2188 63.4102 12.3105 63.3438 12.4121V17H61.9434V8H63.3438V11.5625ZM68.8926 13.7715C68.8926 13.3105 68.959 12.8848 69.0918 12.4941C69.2246 12.0996 69.418 11.7578 69.6719 11.4688C69.9219 11.1797 70.2285 10.9531 70.5918 10.7891C70.9551 10.625 71.3691 10.543 71.834 10.543C72.2988 10.543 72.7129 10.625 73.0762 10.7891C73.4434 10.9531 73.7539 11.1797 74.0078 11.4688C74.2578 11.7578 74.4492 12.0996 74.582 12.4941C74.7148 12.8848 74.7812 13.3105 74.7812 13.7715V13.8945C74.7812 14.3594 74.7148 14.7871 74.582 15.1777C74.4492 15.5684 74.2578 15.9082 74.0078 16.1973C73.7578 16.4863 73.4492 16.7129 73.082 16.877C72.7188 17.041 72.3066 17.123 71.8457 17.123C71.3809 17.123 70.9648 17.041 70.5977 16.877C70.2305 16.7129 69.9219 16.4863 69.6719 16.1973C69.418 15.9082 69.2246 15.5684 69.0918 15.1777C68.959 14.7871 68.8926 14.3594 68.8926 13.8945V13.7715ZM70.293 13.8945C70.293 14.1797 70.3223 14.4492 70.3809 14.7031C70.4434 14.957 70.5391 15.1797 70.668 15.3711C70.793 15.5625 70.9531 15.7148 71.1484 15.8281C71.3438 15.9375 71.5762 15.9922 71.8457 15.9922C72.1074 15.9922 72.3359 15.9375 72.5312 15.8281C72.7266 15.7148 72.8867 15.5625 73.0117 15.3711C73.1367 15.1797 73.2285 14.957 73.2871 14.7031C73.3496 14.4492 73.3809 14.1797 73.3809 13.8945V13.7715C73.3809 13.4941 73.3496 13.2285 73.2871 12.9746C73.2246 12.7207 73.1328 12.498 73.0117 12.3066C72.8828 12.1152 72.7207 11.9629 72.5254 11.8496C72.334 11.7363 72.1035 11.6797 71.834 11.6797C71.5684 11.6797 71.3379 11.7363 71.1426 11.8496C70.9512 11.9629 70.793 12.1152 70.668 12.3066C70.5391 12.498 70.4434 12.7207 70.3809 12.9746C70.3223 13.2285 70.293 13.4941 70.293 13.7715V13.8945ZM80.7402 10.543C80.9668 10.543 81.1855 10.5586 81.3965 10.5898C81.6113 10.6211 81.7793 10.6582 81.9004 10.7012L81.7012 12.084C81.4863 12.0371 81.2734 12.002 81.0625 11.9785C80.8555 11.9551 80.6484 11.9434 80.4414 11.9434C80.207 11.9434 79.9961 11.9668 79.8086 12.0137C79.6211 12.0605 79.4551 12.1328 79.3105 12.2305C79.1543 12.3242 79.0215 12.4434 78.9121 12.5879C78.8027 12.7324 78.7109 12.8984 78.6367 13.0859V17H77.2363V10.6602H78.5488L78.6074 11.5391L78.6133 11.6855C78.8711 11.3301 79.1797 11.0508 79.5391 10.8477C79.9023 10.6445 80.3027 10.543 80.7402 10.543ZM86.377 9.11328V10.6602H88.7617V11.709H86.377V14.7383C86.377 14.9727 86.4043 15.1699 86.459 15.3301C86.5176 15.4863 86.5977 15.6094 86.6992 15.6992C86.8008 15.793 86.9219 15.8594 87.0625 15.8984C87.2031 15.9375 87.3574 15.957 87.5254 15.957C87.6465 15.957 87.7715 15.9512 87.9004 15.9395C88.0293 15.9277 88.1543 15.9121 88.2754 15.8926C88.3926 15.877 88.502 15.8594 88.6035 15.8398C88.709 15.8164 88.7969 15.7969 88.8672 15.7812L89.0195 16.748C88.918 16.8105 88.7949 16.8652 88.6504 16.9121C88.5098 16.9551 88.3574 16.9922 88.1934 17.0234C88.0293 17.0547 87.8574 17.0781 87.6777 17.0938C87.502 17.1133 87.3262 17.123 87.1504 17.123C86.8301 17.123 86.5352 17.0801 86.2656 16.9941C86 16.9043 85.7715 16.7656 85.5801 16.5781C85.3887 16.3945 85.2383 16.1582 85.1289 15.8691C85.0234 15.5801 84.9707 15.2324 84.9707 14.8262V11.709H83.4355V10.6602H84.9707V9.11328H86.377ZM93.5312 15.9922C93.707 15.9922 93.875 15.9668 94.0352 15.916C94.1992 15.8613 94.3438 15.7852 94.4688 15.6875C94.5898 15.5898 94.6855 15.4746 94.7559 15.3418C94.8301 15.209 94.8672 15.0625 94.8672 14.9023H96.1855C96.1895 15.2109 96.1191 15.502 95.9746 15.7754C95.834 16.0449 95.6426 16.2773 95.4004 16.4727C95.1543 16.6758 94.8711 16.8359 94.5508 16.9531C94.2344 17.0664 93.9004 17.123 93.5488 17.123C93.0605 17.123 92.6328 17.0391 92.2656 16.8711C91.9023 16.6992 91.5996 16.4688 91.3574 16.1797C91.1113 15.8906 90.9258 15.5547 90.8008 15.1719C90.6758 14.7852 90.6133 14.373 90.6133 13.9355V13.7305C90.6133 13.2969 90.6738 12.8867 90.7949 12.5C90.9199 12.1133 91.1055 11.7754 91.3516 11.4863C91.5977 11.1973 91.9023 10.9688 92.2656 10.8008C92.6328 10.6289 93.0586 10.543 93.543 10.543C93.9258 10.543 94.2793 10.6016 94.6035 10.7188C94.9316 10.8359 95.2129 11 95.4473 11.2109C95.6816 11.4219 95.8633 11.6738 95.9922 11.9668C96.125 12.2598 96.1895 12.582 96.1855 12.9336H94.8672C94.8672 12.7617 94.834 12.5996 94.7676 12.4473C94.7051 12.2949 94.6152 12.1621 94.498 12.0488C94.377 11.9355 94.2324 11.8457 94.0645 11.7793C93.9004 11.7129 93.7227 11.6797 93.5312 11.6797C93.2383 11.6797 92.9941 11.7402 92.7988 11.8613C92.6074 11.9785 92.4551 12.1328 92.3418 12.3242C92.2207 12.5156 92.1348 12.7344 92.084 12.9805C92.0371 13.2266 92.0137 13.4766 92.0137 13.7305V13.9355C92.0137 14.1934 92.0371 14.4473 92.084 14.6973C92.1348 14.9434 92.2188 15.1602 92.3359 15.3477C92.4492 15.543 92.6035 15.6992 92.7988 15.8164C92.9941 15.9336 93.2383 15.9922 93.5312 15.9922ZM102.133 17L102.051 16.1152C101.836 16.4316 101.574 16.6797 101.266 16.8594C100.957 17.0352 100.611 17.123 100.229 17.123C99.9004 17.123 99.5996 17.0723 99.3262 16.9707C99.0566 16.8652 98.8242 16.7031 98.6289 16.4844C98.4375 16.2656 98.2891 15.9863 98.1836 15.6465C98.0781 15.3027 98.0254 14.8926 98.0254 14.416V10.6602H99.4258V14.4277C99.4258 14.7207 99.4473 14.9668 99.4902 15.166C99.5332 15.3613 99.6016 15.5176 99.6953 15.6348C99.7891 15.7559 99.9082 15.8418 100.053 15.8926C100.197 15.9434 100.367 15.9688 100.562 15.9688C100.766 15.9688 100.947 15.9473 101.107 15.9043C101.268 15.8574 101.408 15.7949 101.529 15.7168C101.631 15.6465 101.721 15.5645 101.799 15.4707C101.877 15.373 101.943 15.2656 101.998 15.1484V10.6602H103.404V17H102.133ZM107.998 9.11328V10.6602H110.383V11.709H107.998V14.7383C107.998 14.9727 108.025 15.1699 108.08 15.3301C108.139 15.4863 108.219 15.6094 108.32 15.6992C108.422 15.793 108.543 15.8594 108.684 15.8984C108.824 15.9375 108.979 15.957 109.146 15.957C109.268 15.957 109.393 15.9512 109.521 15.9395C109.65 15.9277 109.775 15.9121 109.896 15.8926C110.014 15.877 110.123 15.8594 110.225 15.8398C110.33 15.8164 110.418 15.7969 110.488 15.7812L110.641 16.748C110.539 16.8105 110.416 16.8652 110.271 16.9121C110.131 16.9551 109.979 16.9922 109.814 17.0234C109.65 17.0547 109.479 17.0781 109.299 17.0938C109.123 17.1133 108.947 17.123 108.771 17.123C108.451 17.123 108.156 17.0801 107.887 16.9941C107.621 16.9043 107.393 16.7656 107.201 16.5781C107.01 16.3945 106.859 16.1582 106.75 15.8691C106.645 15.5801 106.592 15.2324 106.592 14.8262V11.709H105.057V10.6602H106.592V9.11328H107.998Z" fill="black"/>
<path fill-rule="evenodd" clip-rule="evenodd" d="M17.3333 5H10.3333C9.7145 5 9.121 5.24424 8.68342 5.67898C8.24583 6.11372 8 6.70336 8 7.31818V12.7273C8 13.154 8.34822 13.5 8.77778 13.5C9.20733 13.5 9.55556 13.154 9.55556 12.7273V7.31818C9.55556 7.11324 9.6375 6.9167 9.78336 6.77178C9.92922 6.62687 10.1271 6.54545 10.3333 6.54545H15.7778V8.86364C15.7778 9.47846 16.0236 10.0681 16.4612 10.5028C16.8988 10.9376 17.4923 11.1818 18.1111 11.1818H20.4444V19.6818C20.4444 19.8868 20.3625 20.0833 20.2166 20.2282C20.0708 20.3731 19.8729 20.4545 19.6667 20.4545H10.3333C10.1271 20.4545 9.92922 20.3731 9.78336 20.2282C9.6375 20.0833 9.55556 19.8868 9.55556 19.6818V17.3636C9.55556 17.1587 9.6375 16.9621 9.78336 16.8172C9.92922 16.6723 10.1271 16.5909 10.3333 16.5909H13.9001L12.8945 17.59C12.5907 17.8917 12.5907 18.381 12.8945 18.6828C13.1982 18.9845 13.6907 18.9845 13.9944 18.6828L16.3277 16.3646C16.6315 16.0628 16.6315 15.5735 16.3277 15.2718L13.9944 12.9536C13.6907 12.6518 13.1982 12.6518 12.8945 12.9536C12.5907 13.2554 12.5907 13.7446 12.8945 14.0464L13.9001 15.0455H10.3333C9.71449 15.0455 9.121 15.2897 8.68342 15.7244C8.24583 16.1592 8 16.7488 8 17.3636V19.6818C8 20.2966 8.24583 20.8863 8.68342 21.321C9.121 21.7558 9.71449 22 10.3333 22H19.6667C20.2855 22 20.879 21.7558 21.3166 21.321C21.7542 20.8863 22 20.2966 22 19.6818V9.63636C22 9.43142 21.9181 9.23488 21.7722 9.08996L17.8833 5.22633C17.7374 5.08141 17.5396 5 17.3333 5ZM17.3333 8.86364C17.3333 9.06858 17.4153 9.26512 17.5611 9.41004C17.707 9.55495 17.9048 9.63636 18.1111 9.63636H20.1223L17.3333 6.86553V8.86364Z" fill="url(#paint0_linear_1113_993)"/>
<defs>
<linearGradient id="paint0_linear_1113_993" x1="7.2" y1="11.2308" x2="20.2053" y2="24.7" gradientUnits="userSpaceOnUse">
<stop stop-color="#F8AB38"/>
<stop offset="0.265625" stop-color="#BC1CA9"/>
<stop offset="0.526042" stop-color="#AD54F3"/>
<stop offset="0.755208" stop-color="#2251F9"/>
<stop offset="1" stop-color="#43C5E2"/>
</linearGradient>
</defs>
</svg>
